HIERARCHY
ROOT Hips
{
	OFFSET 0.000000 0.000000 0.000000
	CHANNELS 6 Xposition Yposition Zposition Yrotation Xrotation Zrotation
	JOINT Chest
	{
		OFFSET 0.000000 -0.009281 11.569106
		CHANNELS 3 Yrotation Xrotation Zrotation
		JOINT Chest2
		{
			OFFSET -0.000000 0.016865 9.269641
			CHANNELS 3 Yrotation Xrotation Zrotation
			JOINT Chest3
			{
				OFFSET -0.000000 0.000001 8.374491
				CHANNELS 3 Yrotation Xrotation Zrotation
				JOINT Chest4
				{
					OFFSET -0.000000 0.000001 8.374493
					CHANNELS 3 Yrotation Xrotation Zrotation
					JOINT Neck
					{
						OFFSET -0.000000 0.000002 12.152554
						CHANNELS 3 Yrotation Xrotation Zrotation
						JOINT Head
						{
							OFFSET -0.000000 0.040101 7.802319
							CHANNELS 3 Yrotation Xrotation Zrotation
							End Site
							{
								OFFSET -0.000000 0.020947 14.853096
							}
						}
					}
					JOINT RightCollar
					{
						OFFSET 2.894404 0.000001 6.791374
						CHANNELS 3 Yrotation Xrotation Zrotation
						JOINT RightShoulder
						{
							OFFSET 13.574684 0.000001 0.000000
							CHANNELS 3 Yrotation Xrotation Zrotation
							JOINT RightElbow
							{
								OFFSET 23.923903 0.000002 0.000000
								CHANNELS 3 Yrotation Xrotation Zrotation
								JOINT RightWrist
								{
									OFFSET 19.846718 0.012767 0.000000
									CHANNELS 3 Yrotation Xrotation Zrotation
									End Site
									{
										OFFSET 14.973145 0.000001 0.000000
									}
								}
							}
						}
					}
					JOINT LeftCollar
					{
						OFFSET -2.894404 0.000001 6.791374
						CHANNELS 3 Yrotation Xrotation Zrotation
						JOINT LeftShoulder
						{
							OFFSET -13.574684 -0.000001 0.000000
							CHANNELS 3 Yrotation Xrotation Zrotation
							JOINT LeftElbow
							{
								OFFSET -23.923903 -0.000002 0.000000
								CHANNELS 3 Yrotation Xrotation Zrotation
								JOINT LeftWrist
								{
									OFFSET -19.846718 0.012763 0.000000
									CHANNELS 3 Yrotation Xrotation Zrotation
									End Site
									{
										OFFSET -14.973145 -0.000001 0.000000
									}
								}
							}
						}
					}
				}
			}
		}
	}
	JOINT RightHip
	{
		OFFSET 9.469263 0.004643 0.045487
		CHANNELS 3 Yrotation Xrotation Zrotation
		JOINT RightKnee
		{
			OFFSET 0.000000 0.002661 -40.478676
			CHANNELS 3 Yrotation Xrotation Zrotation
			JOINT RightAnkle
			{
				OFFSET 0.000000 0.049106 -35.224068
				CHANNELS 3 Yrotation Xrotation Zrotation
				JOINT RightToe
				{
					OFFSET -0.000001 12.539529 -6.151390
					CHANNELS 3 Yrotation Xrotation Zrotation
					End Site
					{
						OFFSET -0.000001 5.044994 -1.291870
					}
				}
			}
		}
	}
	JOINT LeftHip
	{
		OFFSET -9.469263 0.004641 0.045487
		CHANNELS 3 Yrotation Xrotation Zrotation
		JOINT LeftKnee
		{
			OFFSET 0.000000 0.002661 -40.478676
			CHANNELS 3 Yrotation Xrotation Zrotation
			JOINT LeftAnkle
			{
				OFFSET 0.000000 0.049106 -35.224068
				CHANNELS 3 Yrotation Xrotation Zrotation
				JOINT LeftToe
				{
					OFFSET -0.000001 12.539529 -6.151390
					CHANNELS 3 Yrotation Xrotation Zrotation
					End Site
					{
						OFFSET -0.000001 5.044994 -1.291870
					}
				}
			}
		}
	}
}
MOTION
Frames: 9
Frame Time: 0.016667
41.215237 172.445496 80.005989 7.860930 5.272279 44.624860 0.468729 -1.854085 3.340379 0.562301 -0.785926 1.236859 0.562300 -0.785926 1.236858 0.423311 -0.588310 0.928360 -5.625496 -17.407652 2.188813 -9.638742 3.828656 2.116256 10.281042 -1.914751 -0.800311 78.547613 -8.004702 27.146049 -3.833706 -24.826315 39.693952 -37.590168 20.537414 43.358089 -4.469774 0.888238 9.183729 -63.857597 25.576835 30.204452 18.326110 14.357901 18.484556 13.233065 -5.233608 1.243717 -13.374000 -9.428857 -6.221422 2.535021 -46.112598 1.193650 17.176696 -14.394378 5.879775 -16.982886 56.889332 -7.901466 -13.781615 5.483694 3.999067 -3.611951 -4.338551 4.009857 8.555412 -12.135790 3.034550 -0.749082 2.508717 -0.548572 
39.544106 173.354401 79.823738 8.555539 4.151196 45.052563 0.262389 -1.724531 2.992813 0.414022 -0.689424 1.263802 0.414022 -0.689423 1.263803 0.311939 -0.516213 0.948305 -6.095960 -17.359221 2.361723 -10.449478 3.912808 2.272170 10.033164 -1.929043 -0.557875 79.373294 -7.034627 26.095376 -2.713619 -26.569364 40.430396 -38.838863 24.031148 46.652777 -4.576827 1.423107 9.480241 -61.930077 25.445793 30.663362 17.943018 14.073864 18.103976 11.234965 -5.168741 1.478425 -15.086016 -5.775601 -6.891561 -0.021888 -51.813371 2.557119 19.816424 -20.096536 8.255984 -24.937530 60.737116 -14.915070 -15.882604 4.653162 2.357594 -3.523069 -4.955152 5.243062 9.628528 -10.352009 3.954638 -1.262384 1.944196 -0.956229 
37.707077 174.150711 79.671753 9.192338 3.172842 45.144142 -0.054115 -1.721158 2.963624 0.293713 -0.639745 1.282122 0.293713 -0.639744 1.282123 0.221625 -0.479196 0.961888 -6.502413 -17.202834 2.547768 -11.140714 4.199962 2.466364 9.816490 -1.783125 -0.473711 79.918117 -6.409458 24.900781 -1.632602 -27.940076 40.637894 -39.857678 27.340663 49.325249 -4.838947 1.248314 9.546825 -60.682420 25.878332 29.843180 17.395891 13.773096 17.516995 10.061150 -4.215249 1.242670 -15.816082 -1.703074 -6.352946 -3.719101 -57.291500 6.046135 22.209748 -22.934433 9.059108 -29.620331 59.242301 -18.329583 -17.370641 3.906338 0.801154 -4.164599 -5.610034 6.660635 10.451216 -8.528674 4.604416 -1.285305 1.439340 -0.990706 
36.071819 174.979218 79.596062 9.444420 2.449061 45.258285 -0.144457 -1.663484 2.900356 0.208268 -0.623578 1.274053 0.208269 -0.623578 1.274055 0.157501 -0.467252 0.955742 -6.843453 -16.974644 2.755975 -11.705855 4.624267 2.717627 9.573038 -1.914210 -0.440466 80.440688 -5.705889 23.805105 -0.828264 -29.204349 40.459438 -41.123579 29.876559 50.928377 -5.285946 1.246679 9.454372 -59.679242 26.454591 28.596930 16.762942 13.394979 16.834217 9.824869 -2.764690 0.379899 -15.446224 2.425514 -5.005889 -7.441626 -61.736161 10.230684 24.123451 -23.320175 9.118174 -29.860228 52.586798 -17.857357 -18.168949 2.898346 -0.639539 -5.042808 -5.630015 7.267326 10.851475 -7.008457 5.450251 -0.945811 0.966536 -0.655412 
34.533207 175.832184 79.578842 9.342616 1.992309 45.716488 0.050649 -1.523955 2.525307 0.156845 -0.582030 1.222122 0.156845 -0.582030 1.222121 0.118797 -0.436211 0.916728 -7.112918 -16.778667 2.999710 -12.125214 4.994585 3.060577 9.422138 -2.500533 -0.182828 80.918146 -4.589057 22.756276 -0.259082 -30.319930 39.776778 -42.262789 31.564968 51.621450 -5.699827 1.156579 9.521952 -59.372669 26.888920 26.836628 16.072895 13.073214 16.027584 10.472885 -1.323876 -1.308760 -14.223701 6.407855 -3.661603 -10.387534 -65.278037 14.192257 24.821152 -21.651667 7.956450 -16.244951 34.033788 -7.184620 -18.537162 1.894370 -2.286635 -5.753425 -5.391625 8.016165 11.359005 -5.777005 6.134388 -0.785516 0.577202 -0.608370 
33.046104 176.654984 79.577415 9.176925 1.598308 46.223175 0.162893 -1.349549 2.253194 0.119212 -0.505495 1.121451 0.119212 -0.505493 1.121449 0.090336 -0.378904 0.841178 -7.256055 -16.662824 3.243826 -12.307610 5.221730 3.453755 9.518342 -2.724050 0.087771 81.207923 -3.381897 21.063414 0.328070 -31.083153 38.448648 -42.751459 32.652245 51.902324 -5.835324 0.650595 9.675766 -60.018204 27.236971 24.396143 15.241210 12.853164 15.118935 11.749677 -0.069938 -3.836604 -12.668651 10.528323 -1.922813 -12.577461 -68.152311 17.553501 24.261662 -19.200761 6.016745 -7.937084 18.599988 -2.517435 -19.078501 0.998999 -3.446427 -6.001833 -5.478650 8.830047 11.931096 -4.452123 6.377112 -0.804296 0.380788 -0.703915 
31.519928 177.433289 79.550827 8.982770 1.232039 46.923079 0.184579 -1.126883 2.004031 0.093313 -0.389814 0.959091 0.093313 -0.389815 0.959091 0.070598 -0.292216 0.719377 -7.294840 -16.658065 3.476336 -12.297194 5.246060 3.870081 9.653947 -2.321134 0.136875 81.327848 -2.359325 18.526705 1.151421 -31.442745 36.501573 -42.753672 33.390425 52.036732 -6.055178 0.053968 9.500776 -60.856589 27.651785 21.848211 14.222365 12.759035 14.114064 13.251492 1.014461 -6.978896 -11.100052 14.644703 0.229328 -13.072928 -70.161076 18.944271 22.686089 -16.514175 3.848233 -2.378750 8.218624 -0.335950 -19.840649 0.031752 -4.002292 -5.695259 -5.540241 9.061842 12.472850 -3.272188 6.511839 -0.957821 0.259003 -0.892374 
30.128233 178.155930 79.493454 8.419572 0.900958 48.104889 0.321022 -0.606701 1.561717 0.078904 -0.266550 0.757575 0.078904 -0.266551 0.757575 0.059508 -0.199816 0.568215 -7.208131 -16.739086 3.641240 -12.076109 5.110343 4.211091 9.786081 -1.733052 -0.039669 81.227198 -1.289858 15.652391 2.117468 -31.614866 34.097817 -42.674530 34.091059 51.928743 -6.629478 0.091653 8.657675 -61.061263 28.066321 19.882978 13.055171 12.826431 12.995538 14.697092 2.019261 -10.374993 -9.483367 18.786591 2.547885 -10.590388 -70.866655 16.378701 20.481753 -14.287615 1.944196 -3.456435 9.839849 -1.206782 -20.274054 -0.749091 -4.288777 -5.254193 -5.689123 8.660456 12.936876 -2.043854 6.310801 -1.068941 0.036696 -0.890882 
28.792192 178.838028 79.435593 7.892128 0.651604 49.570190 0.335151 -0.094738 1.104198 0.083714 -0.146690 0.558045 0.083714 -0.146691 0.558041 0.062919 -0.109942 0.418549 -7.003081 -16.882544 3.708907 -11.669450 4.855032 4.417085 9.981094 -1.433722 -0.105851 80.765648 0.286069 12.855076 3.105134 -31.670935 31.292563 -42.518754 34.833719 51.603466 -7.431731 0.454459 7.507259 -61.018540 28.324094 18.039348 11.735944 13.087311 11.684073 16.016507 2.942585 -13.713527 -8.028973 22.523724 5.150975 -6.065205 -70.173630 10.282085 17.788534 -12.680603 0.719354 -3.072086 12.033212 -0.982849 -20.600791 -1.525938 -4.595046 -4.780417 -6.060858 8.082360 13.274867 -0.819092 5.939565 -1.109811 -0.121360 -0.725122 
